<svg width="54" height="54" viewBox="0 0 54 54" fill="none" xmlns="http://www.w3.org/2000/svg">
<circle cx="26.6667" cy="26.6667" r="26.6667" fill="#958576"/>
<path d="M38.0649 19.3517H31.5307V21.1689H38.0907L38.0649 19.3517ZM36.6859 31.853C36.1902 32.1815 35.6048 32.3481 35.0104 32.3299C34.617 32.3709 34.2194 32.3303 33.8424 32.2105C33.4654 32.0908 33.1171 31.8945 32.8195 31.6339C32.2692 31.01 31.9827 30.1967 32.0204 29.3656H40.5523C40.6138 28.5003 40.5399 27.6306 40.3332 26.788C40.1333 25.9864 39.7834 25.2299 39.3021 24.5584C38.8177 23.9071 38.192 23.3739 37.4721 22.999C36.671 22.604 35.7875 22.4052 34.8945 22.419C34.0546 22.4129 33.2219 22.575 32.4457 22.8959C31.735 23.1955 31.0909 23.6336 30.5512 24.1847C30.013 24.7467 29.5962 25.4136 29.3268 26.1437C29.0378 26.9318 28.8937 27.7658 28.9015 28.6053C28.8883 29.4566 29.028 30.3035 29.314 31.1055C29.5569 31.8318 29.9425 32.5022 30.4481 33.0774C30.9712 33.6421 31.6142 34.0825 32.3297 34.3662C33.1276 34.6702 33.9763 34.8189 34.83 34.8044C36.0278 34.8417 37.2105 34.5281 38.2324 33.9022C39.2647 33.1687 40.0078 32.0973 40.3332 30.8735H37.4849C37.3325 31.2784 37.0519 31.6223 36.6859 31.853ZM32.2653 26.5432C32.3656 26.2219 32.5321 25.9251 32.7541 25.6721C32.9761 25.419 33.2486 25.2153 33.5541 25.0739C33.9587 24.8918 34.3994 24.8037 34.8429 24.8162C35.1633 24.7888 35.4859 24.8311 35.7884 24.9401C36.091 25.0491 36.3663 25.2223 36.5957 25.4477C37.0336 25.9838 37.3146 26.6305 37.4076 27.3165H32.0591C32.08 27.0546 32.1275 26.7955 32.2009 26.5432H32.2653ZM25.4476 25.9246C26.1035 25.6514 26.6735 25.2061 27.0972 24.6358C27.4867 24.03 27.6802 23.319 27.6514 22.5995C27.6767 21.9432 27.5487 21.2902 27.2777 20.692C27.0499 20.1738 26.6844 19.728 26.2208 19.4032C25.7294 19.0655 25.1712 18.837 24.5841 18.7331C23.8892 18.5873 23.1804 18.5182 22.4704 18.5269H14.7763V34.7399H22.638C23.3554 34.7405 24.07 34.6495 24.7645 34.4693C25.4227 34.299 26.0464 34.0155 26.6075 33.6316C27.151 33.2549 27.5936 32.7503 27.8963 32.1623C28.2312 31.5048 28.3952 30.7735 28.3731 30.0358C28.3975 29.1217 28.1412 28.2221 27.6385 27.4582C27.098 26.69 26.2963 26.1448 25.3831 25.9246H25.4476ZM18.3463 21.2978H21.6843C21.9909 21.2974 22.2971 21.3233 22.5993 21.3751C22.8776 21.4163 23.1449 21.5127 23.3855 21.6586C23.6179 21.7901 23.8062 21.9874 23.9268 22.2257C24.076 22.5115 24.1472 22.8316 24.133 23.1536C24.157 23.431 24.1146 23.7102 24.0092 23.9679C23.9039 24.2256 23.7387 24.4546 23.5272 24.6358C23.066 24.9528 22.5141 25.1112 21.9549 25.0868H18.3463V21.2978ZM24.5841 30.8864C24.4517 31.1491 24.2514 31.3716 24.0041 31.5308C23.7467 31.6909 23.4632 31.8043 23.1664 31.8659C22.8365 31.9398 22.4991 31.9744 22.1611 31.969H18.2947V27.5227H22.1611C22.8246 27.4936 23.4798 27.6789 24.0299 28.0511C24.2784 28.2741 24.4709 28.5525 24.5918 28.8637C24.7127 29.1749 24.7586 29.5102 24.7258 29.8425C24.7607 30.1968 24.7121 30.5543 24.5841 30.8864Z" fill="white"/>
</svg>
