<svg width="54" height="54" viewBox="0 0 54 54" fill="none" xmlns="http://www.w3.org/2000/svg">
<circle cx="26.6667" cy="26.6667" r="26.6667" fill="#958576"/>
<path d="M26.9775 16.6667C24.9997 16.6667 23.0663 17.2532 21.4218 18.3521C19.7773 19.4509 18.4956 21.0126 17.7387 22.8399C16.9819 24.6672 16.7838 26.6778 17.1697 28.6176C17.5555 30.5575 18.5079 32.3393 19.9065 33.7378C21.305 35.1363 23.0868 36.0887 25.0266 36.4746C26.9664 36.8604 28.9771 36.6624 30.8044 35.9055C32.6316 35.1487 34.1934 33.8669 35.2922 32.2224C36.391 30.578 36.9775 28.6446 36.9775 26.6667C36.9775 25.3535 36.7189 24.0532 36.2163 22.8399C35.7138 21.6267 34.9772 20.5243 34.0486 19.5957C33.12 18.6671 32.0176 17.9305 30.8044 17.428C29.5911 16.9254 28.2908 16.6667 26.9775 16.6667ZM26.9775 18.6667C29.0323 18.6659 31.0073 19.4617 32.4875 20.8867C30.9596 21.7829 29.3404 22.5137 27.6575 23.0667C26.82 21.6236 25.8598 20.2552 24.7875 18.9767C25.4995 18.7717 26.2367 18.6674 26.9775 18.6667ZM22.8675 19.8167C23.9152 21.0153 24.8555 22.3035 25.6775 23.6667C23.7146 24.1541 21.7 24.4026 19.6775 24.4067H19.3175C19.8847 22.4864 21.1515 20.8486 22.8675 19.8167ZM20.9775 31.9767C19.6763 30.5155 18.9636 28.6233 18.9775 26.6667C18.9775 26.5667 18.9775 26.4667 18.9775 26.3767H19.6575C22.0249 26.3556 24.3789 26.0193 26.6575 25.3767C26.9775 25.9867 27.2775 26.6167 27.5675 27.2667C26.009 27.8162 24.5575 28.6316 23.2775 29.6767L22.9775 29.9167C22.2647 30.557 21.5964 31.2452 20.9775 31.9767ZM26.9775 34.6667C25.3836 34.6703 23.8257 34.1928 22.5075 33.2967C22.9944 32.7383 23.5154 32.2107 24.0675 31.7167L24.3875 31.4467C25.5707 30.4516 26.9265 29.6822 28.3875 29.1767C28.9889 30.8027 29.4571 32.4749 29.7875 34.1767C28.8873 34.5054 27.9359 34.6713 26.9775 34.6667ZM31.6075 33.1767C31.2804 31.6633 30.8528 30.1733 30.3275 28.7167H30.6675C30.7069 28.707 30.7481 28.707 30.7875 28.7167H30.8975H30.9975H31.4775C32.5299 28.7198 33.5743 28.8989 34.5675 29.2467C34.0219 30.8371 32.9854 32.2132 31.6075 33.1767ZM31.4775 26.6667C31.2675 26.6667 31.0575 26.6667 30.8575 26.6667C30.728 26.6504 30.597 26.6504 30.4675 26.6667C30.1957 26.6834 29.9252 26.7168 29.6575 26.7667H29.5575C29.2675 26.0967 28.9675 25.4467 28.6375 24.7667C30.4282 24.1518 32.1479 23.3472 33.7675 22.3667C34.571 23.6561 34.9907 25.1476 34.9775 26.6667C34.9775 26.8367 34.9775 27.0067 34.9775 27.1767C33.8442 26.827 32.6635 26.6549 31.4775 26.6667Z" fill="white"/>
</svg>
