<svg width="27" height="26" viewBox="0 0 27 26" fill="none" xmlns="http://www.w3.org/2000/svg">
<path d="M13.0557 0C20.2658 0.000160192 26.1104 5.84546 26.1104 13.0557C26.1102 19.5717 21.3367 24.9726 15.0957 25.9521V16.8291H18.1377L18.7158 13.0557H15.0957V10.6064C15.0957 9.70301 15.4826 8.81997 16.666 8.61328C16.835 8.58378 17.0201 8.56739 17.2227 8.56738H18.8691V5.35449C18.8691 5.35449 17.3747 5.09961 15.9463 5.09961C13.4303 5.09974 11.6493 6.38648 11.1543 8.75391C11.0993 9.01699 11.0606 9.29351 11.0381 9.58301C11.0231 9.77594 11.0156 9.97523 11.0156 10.1797V13.0557H7.7002V16.8291H11.0156V25.9521C4.7744 24.9728 0.00013173 19.5719 0 13.0557C0 5.84536 5.84538 0 13.0557 0Z" fill="white"/>
</svg>
