<svg width="27" height="27" viewBox="0 0 27 27" fill="none" xmlns="http://www.w3.org/2000/svg">
<path d="M13.0566 0C9.51093 0 9.06595 0.0155041 7.67337 0.0788796C6.2835 0.142527 5.3348 0.362573 4.50469 0.685434C3.64602 1.0189 2.91763 1.46498 2.19196 2.19094C1.46575 2.91663 1.01969 3.64504 0.685141 4.50347C0.361474 5.33388 0.141162 6.28288 0.0786048 7.67224C0.0163192 9.06487 0 9.51013 0 13.0559C0 16.6017 0.0157756 17.0453 0.0788772 18.4379C0.142795 19.8278 0.362834 20.7765 0.685414 21.6067C1.01914 22.4654 1.46521 23.1938 2.19115 23.9195C2.91654 24.6457 3.64493 25.0929 4.50306 25.4263C5.33371 25.7492 6.28268 25.9693 7.67228 26.0329C9.06487 26.0963 9.50957 26.1118 13.055 26.1118C16.6009 26.1118 17.0445 26.0963 18.4371 26.0329C19.8269 25.9693 20.7767 25.7492 21.6074 25.4263C22.4658 25.0929 23.1931 24.6457 23.9185 23.9195C24.6447 23.1938 25.0908 22.4654 25.4253 21.607C25.7463 20.7765 25.9666 19.8275 26.0318 18.4382C26.0944 17.0456 26.1107 16.6017 26.1107 13.0559C26.1107 9.51013 26.0944 9.06514 26.0318 7.67251C25.9666 6.2826 25.7463 5.33387 25.4253 4.50374C25.0908 3.64504 24.6447 2.91663 23.9185 2.19094C23.1923 1.46471 22.4661 1.01863 21.6066 0.685434C20.7743 0.362573 19.825 0.142527 18.4352 0.0788796C17.0426 0.0155041 16.5992 0 13.0525 0H13.0566ZM11.8854 2.35278C12.233 2.35224 12.6209 2.35278 13.0566 2.35278C16.5424 2.35278 16.9556 2.36529 18.3321 2.42785C19.605 2.48606 20.2959 2.69876 20.7561 2.87746C21.3653 3.1141 21.7997 3.39698 22.2564 3.85394C22.7133 4.31089 22.9962 4.74609 23.2333 5.35536C23.412 5.81504 23.625 6.50591 23.6829 7.77886C23.7455 9.15517 23.7591 9.56861 23.7591 13.0529C23.7591 16.5372 23.7455 16.9506 23.6829 18.3269C23.6247 19.5999 23.412 20.2908 23.2333 20.7504C22.9967 21.3597 22.7133 21.7935 22.2564 22.2502C21.7994 22.7072 21.3656 22.9901 20.7561 23.2267C20.2964 23.4062 19.605 23.6184 18.3321 23.6766C16.9558 23.7391 16.5424 23.7527 13.0566 23.7527C9.57049 23.7527 9.15734 23.7391 7.78108 23.6766C6.50816 23.6178 5.81731 23.4051 5.35683 23.2264C4.74758 22.9898 4.31239 22.7069 3.85545 22.25C3.39851 21.793 3.11564 21.3589 2.87846 20.7493C2.69977 20.2897 2.4868 19.5988 2.42887 18.3258C2.36631 16.9495 2.3538 16.5361 2.3538 13.0496C2.3538 9.56317 2.36631 9.15191 2.42887 7.7756C2.48707 6.50265 2.69977 5.81178 2.87846 5.35155C3.1151 4.74228 3.39851 4.30708 3.85545 3.85013C4.31239 3.39317 4.74758 3.11029 5.35683 2.87311C5.81704 2.69359 6.50816 2.48144 7.78108 2.42296C8.98544 2.36856 9.45218 2.35224 11.8854 2.34952V2.35278ZM20.0255 4.5206C19.1606 4.5206 18.4588 5.22154 18.4588 6.08676C18.4588 6.95172 19.1606 7.65347 20.0255 7.65347C20.8904 7.65347 21.5922 6.95172 21.5922 6.08676C21.5922 5.22181 20.8904 4.52006 20.0255 4.52006V4.5206ZM13.0566 6.35115C9.35399 6.35115 6.35204 9.35319 6.35204 13.0559C6.35204 16.7586 9.35399 19.7593 13.0566 19.7593C16.7592 19.7593 19.76 16.7586 19.76 13.0559C19.76 9.35319 16.7589 6.35115 13.0563 6.35115H13.0566ZM13.0566 8.70393C15.4599 8.70393 17.4084 10.6522 17.4084 13.0559C17.4084 15.4593 15.4599 17.4079 13.0566 17.4079C10.653 17.4079 8.70475 15.4593 8.70475 13.0559C8.70475 10.6522 10.653 8.70393 13.0566 8.70393Z" fill="white"/>
</svg>
