<svg width="54" height="54" viewBox="0 0 54 54" fill="none" xmlns="http://www.w3.org/2000/svg">
<circle cx="26.6667" cy="26.6667" r="26.6667" fill="#958576"/>
<path d="M32.1733 20.1267C31.9359 20.1267 31.7039 20.1971 31.5066 20.329C31.3092 20.4608 31.1554 20.6483 31.0646 20.8675C30.9738 21.0868 30.95 21.3281 30.9963 21.5609C31.0426 21.7936 31.1569 22.0075 31.3247 22.1753C31.4925 22.3431 31.7064 22.4574 31.9391 22.5037C32.1719 22.55 32.4132 22.5262 32.6325 22.4354C32.8517 22.3446 33.0392 22.1908 33.171 21.9934C33.3029 21.7961 33.3733 21.5641 33.3733 21.3267C33.3733 21.0085 33.2468 20.7033 33.0218 20.4782C32.7967 20.2532 32.4915 20.1267 32.1733 20.1267ZM36.7733 22.5467C36.7538 21.717 36.5984 20.8962 36.3133 20.1167C36.059 19.4499 35.6632 18.846 35.1533 18.3467C34.6581 17.8342 34.0528 17.4409 33.3833 17.1967C32.6059 16.9029 31.7841 16.744 30.9533 16.7267C29.8933 16.6667 29.5533 16.6667 26.8333 16.6667C24.1133 16.6667 23.7733 16.6667 22.7133 16.7267C21.8824 16.744 21.0606 16.9029 20.2833 17.1967C19.6149 17.4434 19.0102 17.8363 18.5133 18.3467C18.0007 18.8419 17.6074 19.4472 17.3633 20.1167C17.0694 20.8941 16.9105 21.7159 16.8933 22.5467C16.8333 23.6067 16.8333 23.9467 16.8333 26.6667C16.8333 29.3867 16.8333 29.7267 16.8933 30.7867C16.9105 31.6176 17.0694 32.4394 17.3633 33.2167C17.6074 33.8863 18.0007 34.4916 18.5133 34.9867C19.0102 35.4972 19.6149 35.8901 20.2833 36.1367C21.0606 36.4306 21.8824 36.5895 22.7133 36.6067C23.7733 36.6667 24.1133 36.6667 26.8333 36.6667C29.5533 36.6667 29.8933 36.6667 30.9533 36.6067C31.7841 36.5895 32.6059 36.4306 33.3833 36.1367C34.0528 35.8926 34.6581 35.4993 35.1533 34.9867C35.6655 34.4893 36.0616 33.8849 36.3133 33.2167C36.5984 32.4373 36.7538 31.6165 36.7733 30.7867C36.7733 29.7267 36.8333 29.3867 36.8333 26.6667C36.8333 23.9467 36.8333 23.6067 36.7733 22.5467ZM34.9733 30.6667C34.966 31.3015 34.851 31.9305 34.6333 32.5267C34.4736 32.9619 34.2171 33.3552 33.8833 33.6767C33.5589 34.0073 33.1665 34.2632 32.7333 34.4267C32.137 34.6445 31.508 34.7595 30.8733 34.7667C29.8733 34.8167 29.5033 34.8267 26.8733 34.8267C24.2433 34.8267 23.8733 34.8267 22.8733 34.7667C22.2141 34.7791 21.5578 34.6776 20.9333 34.4667C20.519 34.2948 20.1446 34.0395 19.8333 33.7167C19.5013 33.3955 19.2481 33.0019 19.0933 32.5667C18.8491 31.9619 18.7137 31.3187 18.6933 30.6667C18.6933 29.6667 18.6333 29.2967 18.6333 26.6667C18.6333 24.0367 18.6333 23.6667 18.6933 22.6667C18.6977 22.0178 18.8162 21.3747 19.0433 20.7667C19.2193 20.3447 19.4895 19.9684 19.8333 19.6667C20.1371 19.3229 20.5125 19.0498 20.9333 18.8667C21.5428 18.6468 22.1852 18.5318 22.8333 18.5267C23.8333 18.5267 24.2033 18.4667 26.8333 18.4667C29.4633 18.4667 29.8333 18.4667 30.8333 18.5267C31.468 18.534 32.097 18.649 32.6933 18.8667C33.1477 19.0354 33.5555 19.3096 33.8833 19.6667C34.211 19.9739 34.467 20.3495 34.6333 20.7667C34.8555 21.3757 34.9705 22.0185 34.9733 22.6667C35.0233 23.6667 35.0333 24.0367 35.0333 26.6667C35.0333 29.2967 35.0233 29.6667 34.9733 30.6667ZM26.8333 21.5367C25.8191 21.5387 24.8282 21.8413 23.9859 22.4062C23.1436 22.9711 22.4876 23.7729 22.1009 24.7105C21.7141 25.6481 21.614 26.6792 21.813 27.6737C22.0121 28.6681 22.5015 29.5813 23.2193 30.2977C23.9372 31.0142 24.8513 31.5018 25.8461 31.6989C26.841 31.896 27.8719 31.7939 28.8087 31.4053C29.7455 31.0167 30.5461 30.3592 31.1094 29.5158C31.6726 28.6724 31.9732 27.6809 31.9733 26.6667C31.9746 25.9919 31.8425 25.3234 31.5845 24.6997C31.3265 24.0761 30.9478 23.5096 30.4701 23.0328C29.9924 22.556 29.4252 22.1784 28.801 21.9217C28.1769 21.6649 27.5081 21.5341 26.8333 21.5367ZM26.8333 29.9967C26.1746 29.9967 25.5308 29.8014 24.9832 29.4355C24.4356 29.0696 24.0088 28.5496 23.7567 27.9411C23.5047 27.3326 23.4387 26.6631 23.5672 26.0171C23.6957 25.3711 24.0129 24.7778 24.4786 24.3121C24.9443 23.8464 25.5376 23.5292 26.1836 23.4007C26.8296 23.2722 27.4991 23.3382 28.1076 23.5902C28.7161 23.8423 29.2361 24.2691 29.602 24.8167C29.968 25.3643 30.1633 26.0081 30.1633 26.6667C30.1633 27.104 30.0771 27.5371 29.9098 27.9411C29.7424 28.3451 29.4971 28.7122 29.1879 29.0214C28.8787 29.3306 28.5116 29.5759 28.1076 29.7433C27.7036 29.9106 27.2706 29.9967 26.8333 29.9967Z" fill="white"/>
</svg>
