<svg width="125" height="39" viewBox="0 0 125 39" fill="none" xmlns="http://www.w3.org/2000/svg">
<path d="M61.464 26.74C60.152 26.74 58.896 26.556 57.696 26.188C56.496 25.804 55.544 25.316 54.84 24.724L55.92 22.3C56.592 22.828 57.424 23.268 58.416 23.62C59.408 23.972 60.424 24.148 61.464 24.148C62.344 24.148 63.056 24.052 63.6 23.86C64.144 23.668 64.544 23.412 64.8 23.092C65.056 22.756 65.184 22.38 65.184 21.964C65.184 21.452 65 21.044 64.632 20.74C64.264 20.42 63.784 20.172 63.192 19.996C62.616 19.804 61.968 19.628 61.248 19.468C60.544 19.308 59.832 19.124 59.112 18.916C58.408 18.692 57.76 18.412 57.168 18.076C56.592 17.724 56.12 17.26 55.752 16.684C55.384 16.108 55.2 15.372 55.2 14.476C55.2 13.564 55.44 12.732 55.92 11.98C56.416 11.212 57.16 10.604 58.152 10.156C59.16 9.692 60.432 9.46 61.968 9.46C62.976 9.46 63.976 9.588 64.968 9.844C65.96 10.1 66.824 10.468 67.56 10.948L66.576 13.372C65.824 12.924 65.048 12.596 64.248 12.388C63.448 12.164 62.68 12.052 61.944 12.052C61.08 12.052 60.376 12.156 59.832 12.364C59.304 12.572 58.912 12.844 58.656 13.18C58.416 13.516 58.296 13.9 58.296 14.332C58.296 14.844 58.472 15.26 58.824 15.58C59.192 15.884 59.664 16.124 60.24 16.3C60.832 16.476 61.488 16.652 62.208 16.828C62.928 16.988 63.64 17.172 64.344 17.38C65.064 17.588 65.712 17.86 66.288 18.196C66.88 18.532 67.352 18.988 67.704 19.564C68.072 20.14 68.256 20.868 68.256 21.748C68.256 22.644 68.008 23.476 67.512 24.244C67.032 24.996 66.288 25.604 65.28 26.068C64.272 26.516 63 26.74 61.464 26.74ZM78.5738 26.74C76.2698 26.74 74.4618 26.092 73.1498 24.796C71.8538 23.5 71.2058 21.628 71.2058 19.18V9.7H74.3258V19.06C74.3258 20.788 74.6938 22.044 75.4297 22.828C76.1818 23.612 77.2378 24.004 78.5978 24.004C79.9578 24.004 81.0058 23.612 81.7418 22.828C82.4778 22.044 82.8458 20.788 82.8458 19.06V9.7H85.9178V19.18C85.9178 21.628 85.2618 23.5 83.9498 24.796C82.6538 26.092 80.8618 26.74 78.5738 26.74ZM98.1353 26.74C96.8233 26.74 95.6153 26.532 94.5113 26.116C93.4233 25.684 92.4713 25.084 91.6553 24.316C90.8393 23.532 90.2073 22.612 89.7593 21.556C89.3113 20.5 89.0873 19.348 89.0873 18.1C89.0873 16.852 89.3113 15.7 89.7593 14.644C90.2073 13.588 90.8393 12.676 91.6553 11.908C92.4873 11.124 93.4553 10.524 94.5593 10.108C95.6633 9.676 96.8713 9.46 98.1833 9.46C99.6073 9.46 100.887 9.692 102.023 10.156C103.175 10.62 104.143 11.3 104.927 12.196L102.959 14.116C102.303 13.46 101.591 12.98 100.823 12.676C100.071 12.356 99.2393 12.196 98.3273 12.196C97.4473 12.196 96.6313 12.34 95.8793 12.628C95.1273 12.916 94.4793 13.324 93.9353 13.852C93.3913 14.38 92.9673 15.004 92.6633 15.724C92.3753 16.444 92.2313 17.236 92.2313 18.1C92.2313 18.948 92.3753 19.732 92.6633 20.452C92.9673 21.172 93.3913 21.804 93.9353 22.348C94.4793 22.876 95.1193 23.284 95.8553 23.572C96.5913 23.86 97.4073 24.004 98.3033 24.004C99.1353 24.004 99.9353 23.876 100.703 23.62C101.487 23.348 102.231 22.9 102.935 22.276L104.711 24.604C103.831 25.308 102.807 25.844 101.639 26.212C100.487 26.564 99.3193 26.74 98.1353 26.74ZM101.759 24.196V17.908H104.711V24.604L101.759 24.196ZM106.45 26.5L114.01 9.7H117.082L124.666 26.5H121.402L114.898 11.356H116.146L109.666 26.5H106.45ZM109.93 22.612L110.77 20.164H119.842L120.682 22.612H109.93Z" fill="white"/>
<mask id="mask0_1_260" style="mask-type:alpha" maskUnits="userSpaceOnUse" x="0" y="0" width="39" height="39">
<rect width="39" height="39" fill="#D9D9D9"/>
</mask>
<g mask="url(#mask0_1_260)">
<path d="M4.875 23.5625C4.65833 23.5625 4.46875 23.4813 4.30625 23.3188C4.14375 23.1562 4.0625 22.9667 4.0625 22.75C4.0625 22.5333 4.14375 22.3438 4.30625 22.1813C4.46875 22.0188 4.65833 21.9375 4.875 21.9375C5.09167 21.9375 5.28125 22.0188 5.44375 22.1813C5.60625 22.3438 5.6875 22.5333 5.6875 22.75C5.6875 22.9667 5.60625 23.1562 5.44375 23.3188C5.28125 23.4813 5.09167 23.5625 4.875 23.5625ZM4.875 17.0625C4.65833 17.0625 4.46875 16.9812 4.30625 16.8187C4.14375 16.6562 4.0625 16.4667 4.0625 16.25C4.0625 16.0333 4.14375 15.8438 4.30625 15.6813C4.46875 15.5188 4.65833 15.4375 4.875 15.4375C5.09167 15.4375 5.28125 15.5188 5.44375 15.6813C5.60625 15.8438 5.6875 16.0333 5.6875 16.25C5.6875 16.4667 5.60625 16.6562 5.44375 16.8187C5.28125 16.9812 5.09167 17.0625 4.875 17.0625ZM9.75 30.875C9.28958 30.875 8.90365 30.7193 8.59219 30.4078C8.28073 30.0964 8.125 29.7104 8.125 29.25C8.125 28.7896 8.28073 28.4036 8.59219 28.0922C8.90365 27.7807 9.28958 27.625 9.75 27.625C10.2104 27.625 10.5964 27.7807 10.9078 28.0922C11.2193 28.4036 11.375 28.7896 11.375 29.25C11.375 29.7104 11.2193 30.0964 10.9078 30.4078C10.5964 30.7193 10.2104 30.875 9.75 30.875ZM9.75 24.375C9.28958 24.375 8.90365 24.2193 8.59219 23.9078C8.28073 23.5964 8.125 23.2104 8.125 22.75C8.125 22.2896 8.28073 21.9036 8.59219 21.5922C8.90365 21.2807 9.28958 21.125 9.75 21.125C10.2104 21.125 10.5964 21.2807 10.9078 21.5922C11.2193 21.9036 11.375 22.2896 11.375 22.75C11.375 23.2104 11.2193 23.5964 10.9078 23.9078C10.5964 24.2193 10.2104 24.375 9.75 24.375ZM9.75 17.875C9.28958 17.875 8.90365 17.7193 8.59219 17.4078C8.28073 17.0964 8.125 16.7104 8.125 16.25C8.125 15.7896 8.28073 15.4036 8.59219 15.0922C8.90365 14.7807 9.28958 14.625 9.75 14.625C10.2104 14.625 10.5964 14.7807 10.9078 15.0922C11.2193 15.4036 11.375 15.7896 11.375 16.25C11.375 16.7104 11.2193 17.0964 10.9078 17.4078C10.5964 17.7193 10.2104 17.875 9.75 17.875ZM9.75 11.375C9.28958 11.375 8.90365 11.2193 8.59219 10.9078C8.28073 10.5964 8.125 10.2104 8.125 9.75C8.125 9.28958 8.28073 8.90365 8.59219 8.59219C8.90365 8.28073 9.28958 8.125 9.75 8.125C10.2104 8.125 10.5964 8.28073 10.9078 8.59219C11.2193 8.90365 11.375 9.28958 11.375 9.75C11.375 10.2104 11.2193 10.5964 10.9078 10.9078C10.5964 11.2193 10.2104 11.375 9.75 11.375ZM16.25 25.1875C15.5729 25.1875 14.9974 24.9505 14.5234 24.4766C14.0495 24.0026 13.8125 23.4271 13.8125 22.75C13.8125 22.0729 14.0495 21.4974 14.5234 21.0234C14.9974 20.5495 15.5729 20.3125 16.25 20.3125C16.9271 20.3125 17.5026 20.5495 17.9766 21.0234C18.4505 21.4974 18.6875 22.0729 18.6875 22.75C18.6875 23.4271 18.4505 24.0026 17.9766 24.4766C17.5026 24.9505 16.9271 25.1875 16.25 25.1875ZM16.25 18.6875C15.5729 18.6875 14.9974 18.4505 14.5234 17.9766C14.0495 17.5026 13.8125 16.9271 13.8125 16.25C13.8125 15.5729 14.0495 14.9974 14.5234 14.5234C14.9974 14.0495 15.5729 13.8125 16.25 13.8125C16.9271 13.8125 17.5026 14.0495 17.9766 14.5234C18.4505 14.9974 18.6875 15.5729 18.6875 16.25C18.6875 16.9271 18.4505 17.5026 17.9766 17.9766C17.5026 18.4505 16.9271 18.6875 16.25 18.6875ZM16.25 30.875C15.7896 30.875 15.4036 30.7193 15.0922 30.4078C14.7807 30.0964 14.625 29.7104 14.625 29.25C14.625 28.7896 14.7807 28.4036 15.0922 28.0922C15.4036 27.7807 15.7896 27.625 16.25 27.625C16.7104 27.625 17.0964 27.7807 17.4078 28.0922C17.7193 28.4036 17.875 28.7896 17.875 29.25C17.875 29.7104 17.7193 30.0964 17.4078 30.4078C17.0964 30.7193 16.7104 30.875 16.25 30.875ZM16.25 11.375C15.7896 11.375 15.4036 11.2193 15.0922 10.9078C14.7807 10.5964 14.625 10.2104 14.625 9.75C14.625 9.28958 14.7807 8.90365 15.0922 8.59219C15.4036 8.28073 15.7896 8.125 16.25 8.125C16.7104 8.125 17.0964 8.28073 17.4078 8.59219C17.7193 8.90365 17.875 9.28958 17.875 9.75C17.875 10.2104 17.7193 10.5964 17.4078 10.9078C17.0964 11.2193 16.7104 11.375 16.25 11.375ZM16.25 34.9375C16.0333 34.9375 15.8438 34.8563 15.6813 34.6938C15.5188 34.5312 15.4375 34.3417 15.4375 34.125C15.4375 33.9083 15.5188 33.7188 15.6813 33.5562C15.8438 33.3937 16.0333 33.3125 16.25 33.3125C16.4667 33.3125 16.6562 33.3937 16.8187 33.5562C16.9812 33.7188 17.0625 33.9083 17.0625 34.125C17.0625 34.3417 16.9812 34.5312 16.8187 34.6938C16.6562 34.8563 16.4667 34.9375 16.25 34.9375ZM16.25 5.6875C16.0333 5.6875 15.8438 5.60625 15.6813 5.44375C15.5188 5.28125 15.4375 5.09167 15.4375 4.875C15.4375 4.65833 15.5188 4.46875 15.6813 4.30625C15.8438 4.14375 16.0333 4.0625 16.25 4.0625C16.4667 4.0625 16.6562 4.14375 16.8187 4.30625C16.9812 4.46875 17.0625 4.65833 17.0625 4.875C17.0625 5.09167 16.9812 5.28125 16.8187 5.44375C16.6562 5.60625 16.4667 5.6875 16.25 5.6875ZM22.75 25.1875C22.0729 25.1875 21.4974 24.9505 21.0234 24.4766C20.5495 24.0026 20.3125 23.4271 20.3125 22.75C20.3125 22.0729 20.5495 21.4974 21.0234 21.0234C21.4974 20.5495 22.0729 20.3125 22.75 20.3125C23.4271 20.3125 24.0026 20.5495 24.4766 21.0234C24.9505 21.4974 25.1875 22.0729 25.1875 22.75C25.1875 23.4271 24.9505 24.0026 24.4766 24.4766C24.0026 24.9505 23.4271 25.1875 22.75 25.1875ZM22.75 18.6875C22.0729 18.6875 21.4974 18.4505 21.0234 17.9766C20.5495 17.5026 20.3125 16.9271 20.3125 16.25C20.3125 15.5729 20.5495 14.9974 21.0234 14.5234C21.4974 14.0495 22.0729 13.8125 22.75 13.8125C23.4271 13.8125 24.0026 14.0495 24.4766 14.5234C24.9505 14.9974 25.1875 15.5729 25.1875 16.25C25.1875 16.9271 24.9505 17.5026 24.4766 17.9766C24.0026 18.4505 23.4271 18.6875 22.75 18.6875ZM22.75 30.875C22.2896 30.875 21.9036 30.7193 21.5922 30.4078C21.2807 30.0964 21.125 29.7104 21.125 29.25C21.125 28.7896 21.2807 28.4036 21.5922 28.0922C21.9036 27.7807 22.2896 27.625 22.75 27.625C23.2104 27.625 23.5964 27.7807 23.9078 28.0922C24.2193 28.4036 24.375 28.7896 24.375 29.25C24.375 29.7104 24.2193 30.0964 23.9078 30.4078C23.5964 30.7193 23.2104 30.875 22.75 30.875ZM22.75 11.375C22.2896 11.375 21.9036 11.2193 21.5922 10.9078C21.2807 10.5964 21.125 10.2104 21.125 9.75C21.125 9.28958 21.2807 8.90365 21.5922 8.59219C21.9036 8.28073 22.2896 8.125 22.75 8.125C23.2104 8.125 23.5964 8.28073 23.9078 8.59219C24.2193 8.90365 24.375 9.28958 24.375 9.75C24.375 10.2104 24.2193 10.5964 23.9078 10.9078C23.5964 11.2193 23.2104 11.375 22.75 11.375ZM22.75 34.9375C22.5333 34.9375 22.3438 34.8563 22.1813 34.6938C22.0188 34.5312 21.9375 34.3417 21.9375 34.125C21.9375 33.9083 22.0188 33.7188 22.1813 33.5562C22.3438 33.3937 22.5333 33.3125 22.75 33.3125C22.9667 33.3125 23.1562 33.3937 23.3188 33.5562C23.4813 33.7188 23.5625 33.9083 23.5625 34.125C23.5625 34.3417 23.4813 34.5312 23.3188 34.6938C23.1562 34.8563 22.9667 34.9375 22.75 34.9375ZM22.75 5.6875C22.5333 5.6875 22.3438 5.60625 22.1813 5.44375C22.0188 5.28125 21.9375 5.09167 21.9375 4.875C21.9375 4.65833 22.0188 4.46875 22.1813 4.30625C22.3438 4.14375 22.5333 4.0625 22.75 4.0625C22.9667 4.0625 23.1562 4.14375 23.3188 4.30625C23.4813 4.46875 23.5625 4.65833 23.5625 4.875C23.5625 5.09167 23.4813 5.28125 23.3188 5.44375C23.1562 5.60625 22.9667 5.6875 22.75 5.6875ZM29.25 30.875C28.7896 30.875 28.4036 30.7193 28.0922 30.4078C27.7807 30.0964 27.625 29.7104 27.625 29.25C27.625 28.7896 27.7807 28.4036 28.0922 28.0922C28.4036 27.7807 28.7896 27.625 29.25 27.625C29.7104 27.625 30.0964 27.7807 30.4078 28.0922C30.7193 28.4036 30.875 28.7896 30.875 29.25C30.875 29.7104 30.7193 30.0964 30.4078 30.4078C30.0964 30.7193 29.7104 30.875 29.25 30.875ZM29.25 24.375C28.7896 24.375 28.4036 24.2193 28.0922 23.9078C27.7807 23.5964 27.625 23.2104 27.625 22.75C27.625 22.2896 27.7807 21.9036 28.0922 21.5922C28.4036 21.2807 28.7896 21.125 29.25 21.125C29.7104 21.125 30.0964 21.2807 30.4078 21.5922C30.7193 21.9036 30.875 22.2896 30.875 22.75C30.875 23.2104 30.7193 23.5964 30.4078 23.9078C30.0964 24.2193 29.7104 24.375 29.25 24.375ZM29.25 17.875C28.7896 17.875 28.4036 17.7193 28.0922 17.4078C27.7807 17.0964 27.625 16.7104 27.625 16.25C27.625 15.7896 27.7807 15.4036 28.0922 15.0922C28.4036 14.7807 28.7896 14.625 29.25 14.625C29.7104 14.625 30.0964 14.7807 30.4078 15.0922C30.7193 15.4036 30.875 15.7896 30.875 16.25C30.875 16.7104 30.7193 17.0964 30.4078 17.4078C30.0964 17.7193 29.7104 17.875 29.25 17.875ZM29.25 11.375C28.7896 11.375 28.4036 11.2193 28.0922 10.9078C27.7807 10.5964 27.625 10.2104 27.625 9.75C27.625 9.28958 27.7807 8.90365 28.0922 8.59219C28.4036 8.28073 28.7896 8.125 29.25 8.125C29.7104 8.125 30.0964 8.28073 30.4078 8.59219C30.7193 8.90365 30.875 9.28958 30.875 9.75C30.875 10.2104 30.7193 10.5964 30.4078 10.9078C30.0964 11.2193 29.7104 11.375 29.25 11.375ZM34.125 23.5625C33.9083 23.5625 33.7188 23.4813 33.5562 23.3188C33.3937 23.1562 33.3125 22.9667 33.3125 22.75C33.3125 22.5333 33.3937 22.3438 33.5562 22.1813C33.7188 22.0188 33.9083 21.9375 34.125 21.9375C34.3417 21.9375 34.5312 22.0188 34.6938 22.1813C34.8563 22.3438 34.9375 22.5333 34.9375 22.75C34.9375 22.9667 34.8563 23.1562 34.6938 23.3188C34.5312 23.4813 34.3417 23.5625 34.125 23.5625ZM34.125 17.0625C33.9083 17.0625 33.7188 16.9812 33.5562 16.8187C33.3937 16.6562 33.3125 16.4667 33.3125 16.25C33.3125 16.0333 33.3937 15.8438 33.5562 15.6813C33.7188 15.5188 33.9083 15.4375 34.125 15.4375C34.3417 15.4375 34.5312 15.5188 34.6938 15.6813C34.8563 15.8438 34.9375 16.0333 34.9375 16.25C34.9375 16.4667 34.8563 16.6562 34.6938 16.8187C34.5312 16.9812 34.3417 17.0625 34.125 17.0625Z" fill="white"/>
</g>
</svg>
