<svg width="27" height="22" viewBox="0 0 27 22" fill="none" xmlns="http://www.w3.org/2000/svg">
<path d="M26.1107 2.51152C25.1397 2.93746 24.1051 3.21978 23.0264 3.35686C24.1361 2.6943 24.9831 1.65313 25.3813 0.398188C24.3466 1.01505 23.2043 1.45078 21.9869 1.69393C21.0044 0.647872 19.6043 0 18.0768 0C15.1132 0 12.7273 2.40545 12.7273 5.35433C12.7273 5.77863 12.7632 6.18661 12.8514 6.575C8.40112 6.35796 4.4633 4.22504 1.81796 0.975888C1.35613 1.77716 1.08523 2.6943 1.08523 3.68161C1.08523 5.53547 2.0399 7.17882 3.46293 8.13022C2.60291 8.1139 1.75921 7.86422 1.04443 7.47093C1.04443 7.48725 1.04443 7.50846 1.04443 7.52968C1.04443 10.131 2.89992 12.2916 5.33311 12.7894C4.89739 12.9085 4.4225 12.9656 3.92966 12.9656C3.58696 12.9656 3.24099 12.946 2.91624 12.8742C3.60981 14.9941 5.5779 16.5526 7.91808 16.6032C6.09685 18.0278 3.78442 18.8862 1.28106 18.8862C0.842071 18.8862 0.421035 18.8666 0 18.8128C2.37118 20.3419 5.18135 21.215 8.21182 21.215C18.0621 21.215 23.4474 13.0554 23.4474 5.98262C23.4474 5.74599 23.4393 5.51752 23.4278 5.29068C24.4902 4.53674 25.3829 3.59512 26.1107 2.51152Z" fill="white"/>
</svg>
