<svg width="54" height="54" viewBox="0 0 54 54" fill="none" xmlns="http://www.w3.org/2000/svg">
<circle cx="26.6667" cy="26.6667" r="26.6667" fill="#958576"/>
<path d="M38.2616 19.0629C37.3383 19.4635 36.3618 19.7283 35.3626 19.8491C36.4168 19.2193 37.2067 18.2285 37.586 17.0606C36.5953 17.6503 35.5109 18.0658 34.3798 18.289C33.6238 17.4691 32.617 16.9234 31.5174 16.7373C30.4178 16.5513 29.2875 16.7355 28.3039 17.261C27.3202 17.7866 26.5388 18.6238 26.0823 19.6413C25.6257 20.6588 25.5197 21.799 25.781 22.8832C23.778 22.7819 21.8187 22.2604 20.0304 21.3525C18.2421 20.4446 16.6648 19.1706 15.401 17.6134C14.9577 18.3875 14.7248 19.2641 14.7253 20.1562C14.7238 20.9846 14.9271 21.8005 15.3171 22.5314C15.7072 23.2622 16.2719 23.8852 16.961 24.345C16.1601 24.3232 15.3763 24.1083 14.6762 23.7185V23.78C14.6822 24.9407 15.0889 26.0637 15.8276 26.959C16.5663 27.8544 17.5915 28.4671 18.7299 28.6936C18.2917 28.827 17.8367 28.8973 17.3787 28.9024C17.0616 28.8987 16.7454 28.87 16.4328 28.8164C16.757 29.8149 17.3844 30.6875 18.2276 31.3127C19.0709 31.938 20.088 32.2849 21.1376 32.3051C19.3653 33.6997 17.1771 34.4608 14.9219 34.4671C14.5113 34.4684 14.101 34.4438 13.6935 34.3934C15.996 35.8801 18.6794 36.6693 21.4202 36.6659C23.3115 36.6856 25.1878 36.3282 26.9395 35.6145C28.6912 34.9009 30.2831 33.8454 31.6223 32.5096C32.9615 31.1739 34.0211 29.5847 34.7392 27.8348C35.4573 26.085 35.8196 24.2096 35.8048 22.3182C35.8048 22.1093 35.8048 21.8882 35.8048 21.6671C36.7687 20.9482 37.6001 20.067 38.2616 19.0629Z" fill="white"/>
</svg>
